<svg width="128" height="51" viewBox="0 0 128 51" fill="none" xmlns="http://www.w3.org/2000/svg">
<rect x="0.5" y="0.5" width="127" height="50" rx="11.5" stroke="#FFFFFF"/>
<path d="M17.2642 33V18.4545H26.8949V20.9901H20.3395V24.456H26.2557V26.9915H20.3395V33H17.2642ZM33.0348 33.2131C31.9316 33.2131 30.9775 32.9787 30.1726 32.5099C29.3724 32.0365 28.7545 31.3783 28.3189 30.5355C27.8833 29.688 27.6655 28.7055 27.6655 27.5881C27.6655 26.4612 27.8833 25.4763 28.3189 24.6335C28.7545 23.786 29.3724 23.1278 30.1726 22.6591C30.9775 22.1856 31.9316 21.9489 33.0348 21.9489C34.138 21.9489 35.0897 22.1856 35.8899 22.6591C36.6948 23.1278 37.3151 23.786 37.7507 24.6335C38.1863 25.4763 38.4041 26.4612 38.4041 27.5881C38.4041 28.7055 38.1863 29.688 37.7507 30.5355C37.3151 31.3783 36.6948 32.0365 35.8899 32.5099C35.0897 32.9787 34.138 33.2131 33.0348 33.2131ZM33.049 30.8693C33.5509 30.8693 33.9699 30.7273 34.3061 30.4432C34.6423 30.1544 34.8956 29.7614 35.0661 29.2642C35.2412 28.767 35.3288 28.2012 35.3288 27.5668C35.3288 26.9323 35.2412 26.3665 35.0661 25.8693C34.8956 25.3722 34.6423 24.9792 34.3061 24.6903C33.9699 24.4015 33.5509 24.2571 33.049 24.2571C32.5424 24.2571 32.1162 24.4015 31.7706 24.6903C31.4297 24.9792 31.1716 25.3722 30.9964 25.8693C30.826 26.3665 30.7408 26.9323 30.7408 27.5668C30.7408 28.2012 30.826 28.767 30.9964 29.2642C31.1716 29.7614 31.4297 30.1544 31.7706 30.4432C32.1162 30.7273 32.5424 30.8693 33.049 30.8693ZM43.397 18.4545V33H40.3714V18.4545H43.397ZM48.8462 18.4545V33H45.8207V18.4545H48.8462ZM56.1989 33.2131C55.0956 33.2131 54.1416 32.9787 53.3366 32.5099C52.5365 32.0365 51.9186 31.3783 51.483 30.5355C51.0473 29.688 50.8295 28.7055 50.8295 27.5881C50.8295 26.4612 51.0473 25.4763 51.483 24.6335C51.9186 23.786 52.5365 23.1278 53.3366 22.6591C54.1416 22.1856 55.0956 21.9489 56.1989 21.9489C57.3021 21.9489 58.2538 22.1856 59.054 22.6591C59.8589 23.1278 60.4792 23.786 60.9148 24.6335C61.3504 25.4763 61.5682 26.4612 61.5682 27.5881C61.5682 28.7055 61.3504 29.688 60.9148 30.5355C60.4792 31.3783 59.8589 32.0365 59.054 32.5099C58.2538 32.9787 57.3021 33.2131 56.1989 33.2131ZM56.2131 30.8693C56.715 30.8693 57.134 30.7273 57.4702 30.4432C57.8063 30.1544 58.0597 29.7614 58.2301 29.2642C58.4053 28.767 58.4929 28.2012 58.4929 27.5668C58.4929 26.9323 58.4053 26.3665 58.2301 25.8693C58.0597 25.3722 57.8063 24.9792 57.4702 24.6903C57.134 24.4015 56.715 24.2571 56.2131 24.2571C55.7064 24.2571 55.2803 24.4015 54.9347 24.6903C54.5938 24.9792 54.3357 25.3722 54.1605 25.8693C53.9901 26.3665 53.9048 26.9323 53.9048 27.5668C53.9048 28.2012 53.9901 28.767 54.1605 29.2642C54.3357 29.7614 54.5938 30.1544 54.9347 30.4432C55.2803 30.7273 55.7064 30.8693 56.2131 30.8693ZM65.4141 33L62.4453 22.0909H65.5064L67.1967 29.4205H67.2962L69.0575 22.0909H72.0618L73.8516 29.3778H73.9439L75.6058 22.0909H78.6598L75.6982 33H72.495L70.62 26.1392H70.4851L68.6101 33H65.4141ZM80.2738 33V22.0909H83.2994V33H80.2738ZM81.7937 20.6847C81.3439 20.6847 80.958 20.5355 80.636 20.2372C80.3188 19.9342 80.1602 19.572 80.1602 19.1506C80.1602 18.7339 80.3188 18.3764 80.636 18.0781C80.958 17.7751 81.3439 17.6236 81.7937 17.6236C82.2435 17.6236 82.627 17.7751 82.9442 18.0781C83.2662 18.3764 83.4272 18.7339 83.4272 19.1506C83.4272 19.572 83.2662 19.9342 82.9442 20.2372C82.627 20.5355 82.2435 20.6847 81.7937 20.6847ZM88.7486 26.6932V33H85.723V22.0909H88.6065V24.0156H88.7344C88.9759 23.3812 89.3807 22.8793 89.9489 22.5099C90.517 22.1359 91.206 21.9489 92.0156 21.9489C92.7732 21.9489 93.4337 22.1146 93.9972 22.446C94.5606 22.7775 94.9986 23.2509 95.3111 23.8665C95.6236 24.4773 95.7798 25.2064 95.7798 26.054V33H92.7543V26.5938C92.759 25.9261 92.5885 25.4053 92.2429 25.0312C91.8973 24.6525 91.4214 24.4631 90.8153 24.4631C90.4081 24.4631 90.0483 24.5507 89.7358 24.7259C89.428 24.901 89.1866 25.1567 89.0114 25.4929C88.8409 25.8243 88.7533 26.2244 88.7486 26.6932ZM103.079 37.3182C102.099 37.3182 101.259 37.1832 100.558 36.9134C99.8619 36.6482 99.3079 36.286 98.896 35.8267C98.484 35.3674 98.2165 34.8513 98.0934 34.2784L100.892 33.902C100.977 34.1198 101.112 34.3234 101.297 34.5128C101.481 34.7022 101.725 34.8537 102.028 34.9673C102.336 35.0857 102.71 35.1449 103.15 35.1449C103.808 35.1449 104.35 34.9839 104.777 34.6619C105.208 34.3447 105.423 33.812 105.423 33.0639V31.0682H105.295C105.163 31.3712 104.964 31.6577 104.699 31.9276C104.433 32.1974 104.092 32.4176 103.676 32.5881C103.259 32.7585 102.762 32.8438 102.184 32.8438C101.365 32.8438 100.619 32.6544 99.9471 32.2756C99.2795 31.892 98.7468 31.3073 98.3491 30.5213C97.9561 29.7306 97.7596 28.7315 97.7596 27.5241C97.7596 26.2884 97.9608 25.2562 98.3633 24.4276C98.7657 23.599 99.3008 22.9787 99.9684 22.5668C100.641 22.1548 101.377 21.9489 102.177 21.9489C102.788 21.9489 103.299 22.053 103.711 22.2614C104.123 22.465 104.455 22.7206 104.706 23.0284C104.961 23.3314 105.158 23.6297 105.295 23.9233H105.409V22.0909H108.413V33.1065C108.413 34.0346 108.186 34.8111 107.731 35.4361C107.277 36.0611 106.647 36.5298 105.842 36.8423C105.042 37.1596 104.121 37.3182 103.079 37.3182ZM103.143 30.571C103.631 30.571 104.043 30.4503 104.379 30.2088C104.72 29.9626 104.98 29.6122 105.16 29.1577C105.345 28.6984 105.437 28.1491 105.437 27.5099C105.437 26.8707 105.347 26.3168 105.167 25.848C104.987 25.3745 104.727 25.0076 104.386 24.7472C104.045 24.4867 103.631 24.3565 103.143 24.3565C102.646 24.3565 102.227 24.4915 101.886 24.7614C101.545 25.0265 101.287 25.3958 101.112 25.8693C100.937 26.3428 100.849 26.8897 100.849 27.5099C100.849 28.1397 100.937 28.6842 101.112 29.1435C101.292 29.598 101.55 29.9508 101.886 30.2017C102.227 30.4479 102.646 30.571 103.143 30.571Z" fill="#FFFFFF"/>
</svg>
