<svg width="119" height="51" viewBox="0 0 119 51" fill="none" xmlns="http://www.w3.org/2000/svg">
<rect x="0.5" y="0.5" width="118" height="50" rx="11.5" stroke="#FFFFFF"/>
<path d="M28.4272 32.0465V17.5011H38.0579V20.0366H31.5025V23.5025H37.4187V26.038H31.5025V32.0465H28.4272ZM44.1978 32.2596C43.0946 32.2596 42.1405 32.0252 41.3356 31.5565C40.5354 31.083 39.9175 30.4248 39.4819 29.582C39.0463 28.7345 38.8285 27.752 38.8285 26.6346C38.8285 25.5077 39.0463 24.5228 39.4819 23.68C39.9175 22.8325 40.5354 22.1743 41.3356 21.7056C42.1405 21.2321 43.0946 20.9954 44.1978 20.9954C45.301 20.9954 46.2528 21.2321 47.0529 21.7056C47.8579 22.1743 48.4781 22.8325 48.9137 23.68C49.3493 24.5228 49.5671 25.5077 49.5671 26.6346C49.5671 27.752 49.3493 28.7345 48.9137 29.582C48.4781 30.4248 47.8579 31.083 47.0529 31.5565C46.2528 32.0252 45.301 32.2596 44.1978 32.2596ZM44.212 29.9158C44.7139 29.9158 45.133 29.7738 45.4691 29.4897C45.8053 29.2009 46.0586 28.8079 46.2291 28.3107C46.4043 27.8136 46.4919 27.2477 46.4919 26.6133C46.4919 25.9788 46.4043 25.413 46.2291 24.9158C46.0586 24.4187 45.8053 24.0257 45.4691 23.7368C45.133 23.448 44.7139 23.3036 44.212 23.3036C43.7054 23.3036 43.2793 23.448 42.9336 23.7368C42.5927 24.0257 42.3347 24.4187 42.1595 24.9158C41.989 25.413 41.9038 25.9788 41.9038 26.6133C41.9038 27.2477 41.989 27.8136 42.1595 28.3107C42.3347 28.8079 42.5927 29.2009 42.9336 29.4897C43.2793 29.7738 43.7054 29.9158 44.212 29.9158ZM54.56 17.5011V32.0465H51.5345V17.5011H54.56ZM60.0093 17.5011V32.0465H56.9837V17.5011H60.0093ZM67.3619 32.2596C66.2587 32.2596 65.3046 32.0252 64.4997 31.5565C63.6995 31.083 63.0816 30.4248 62.646 29.582C62.2104 28.7345 61.9926 27.752 61.9926 26.6346C61.9926 25.5077 62.2104 24.5228 62.646 23.68C63.0816 22.8325 63.6995 22.1743 64.4997 21.7056C65.3046 21.2321 66.2587 20.9954 67.3619 20.9954C68.4651 20.9954 69.4168 21.2321 70.217 21.7056C71.0219 22.1743 71.6422 22.8325 72.0778 23.68C72.5134 24.5228 72.7312 25.5077 72.7312 26.6346C72.7312 27.752 72.5134 28.7345 72.0778 29.582C71.6422 30.4248 71.0219 31.083 70.217 31.5565C69.4168 32.0252 68.4651 32.2596 67.3619 32.2596ZM67.3761 29.9158C67.878 29.9158 68.297 29.7738 68.6332 29.4897C68.9694 29.2009 69.2227 28.8079 69.3931 28.3107C69.5683 27.8136 69.6559 27.2477 69.6559 26.6133C69.6559 25.9788 69.5683 25.413 69.3931 24.9158C69.2227 24.4187 68.9694 24.0257 68.6332 23.7368C68.297 23.448 67.878 23.3036 67.3761 23.3036C66.8695 23.3036 66.4433 23.448 66.0977 23.7368C65.7568 24.0257 65.4987 24.4187 65.3235 24.9158C65.1531 25.413 65.0679 25.9788 65.0679 26.6133C65.0679 27.2477 65.1531 27.8136 65.3235 28.3107C65.4987 28.8079 65.7568 29.2009 66.0977 29.4897C66.4433 29.7738 66.8695 29.9158 67.3761 29.9158ZM76.5771 32.0465L73.6083 21.1374H76.6694L78.3598 28.467H78.4592L80.2206 21.1374H83.2248L85.0146 28.4243H85.1069L86.7688 21.1374H89.8228L86.8612 32.0465H83.6581L81.7831 25.1857H81.6481L79.7731 32.0465H76.5771Z" fill="#FFFFFF"/>
</svg>
