<svg width="38" height="38" viewBox="0 0 38 38" fill="none" xmlns="http://www.w3.org/2000/svg">
<path d="M19 32.4875L17.4625 31.1C14.8125 28.675 12.625 26.5813 10.9 24.8188C9.175 23.0563 7.8 21.4813 6.775 20.0938C5.75 18.7063 5.03125 17.45 4.61875 16.325C4.20625 15.2 4 14.0625 4 12.9125C4 10.6625 4.75625 8.78125 6.26875 7.26875C7.78125 5.75625 9.65 5 11.875 5C13.3 5 14.6188 5.3375 15.8313 6.0125C17.0438 6.6875 18.1 7.6625 19 8.9375C20.05 7.5875 21.1625 6.59375 22.3375 5.95625C23.5125 5.31875 24.775 5 26.125 5C28.35 5 30.2188 5.75625 31.7313 7.26875C33.2438 8.78125 34 10.6625 34 12.9125C34 14.0625 33.7938 15.2 33.3813 16.325C32.9688 17.45 32.25 18.7063 31.225 20.0938C30.2 21.4813 28.825 23.0563 27.1 24.8188C25.375 26.5813 23.1875 28.675 20.5375 31.1L19 32.4875Z" fill="#9747FF"/>
</svg>
