<svg width="38" height="38" viewBox="0 0 38 38" fill="none" xmlns="http://www.w3.org/2000/svg">
<path d="M19 32.4875L17.4625 31.1C14.8183 28.672 12.6322 26.5775 10.9044 24.8165C9.17645 23.0555 7.8 21.4813 6.775 20.0938C5.75 18.7063 5.03125 17.45 4.61875 16.325C4.20625 15.2 4 14.0625 4 12.9125C4 10.6586 4.75625 8.77641 6.26875 7.26586C7.78125 5.75529 9.65 5 11.875 5C13.3 5 14.6188 5.3375 15.8313 6.0125C17.0438 6.6875 18.1 7.6625 19 8.9375C20.05 7.5875 21.1625 6.59375 22.3375 5.95625C23.5125 5.31875 24.775 5 26.125 5C28.35 5 30.2188 5.75529 31.7313 7.26586C33.2438 8.77641 34 10.6586 34 12.9125C34 14.0625 33.7938 15.2 33.3813 16.325C32.9688 17.45 32.25 18.7063 31.225 20.0938C30.2 21.4813 28.8235 23.0555 27.0956 24.8165C25.3678 26.5775 23.1817 28.672 20.5375 31.1L19 32.4875ZM19 29.525C21.5309 27.2001 23.6136 25.2064 25.2482 23.5438C26.8827 21.8813 28.1813 20.425 29.1438 19.175C30.1063 17.925 30.7813 16.8108 31.1688 15.8324C31.5563 14.854 31.75 13.8825 31.75 12.9179C31.75 11.2643 31.225 9.90625 30.175 8.84375C29.125 7.78125 27.7778 7.25 26.1334 7.25C24.8453 7.25 23.6532 7.64375 22.5569 8.43125C21.4606 9.21875 20.575 10.325 19.9 11.75H18.0625C17.4125 10.35 16.5394 9.25 15.4431 8.45C14.3469 7.65 13.1547 7.25 11.8666 7.25C10.2222 7.25 8.875 7.78125 7.825 8.84375C6.775 9.90625 6.25 11.2664 6.25 12.9243C6.25 13.8914 6.44375 14.8688 6.83125 15.8563C7.21875 16.8438 7.89375 17.9688 8.85625 19.2313C9.81875 20.4938 11.125 21.95 12.775 23.6C14.425 25.25 16.5 27.225 19 29.525Z" fill="white"/>
</svg>
